<svg xmlns="http://www.w3.org/2000/svg" xmlns:xlink="http://www.w3.org/1999/xlink" contentStyleType="text/css" height="1072px" preserveAspectRatio="none" style="width:1041px;height:1072px;background:#FFFFFF;" version="1.1" viewBox="0 0 1041 1072" width="1041px" zoomAndPan="magnify"><defs/><g><rect fill="none" height="614.5938" style="stroke:#000000;stroke-width:1.5;" width="1024.7427" x="10" y="273.0938"/><line style="stroke:#181818;stroke-width:0.5;stroke-dasharray:5.0,5.0;" x1="38" x2="38" y1="81.2969" y2="992.0859"/><line style="stroke:#181818;stroke-width:0.5;stroke-dasharray:5.0,5.0;" x1="264.3872" x2="264.3872" y1="81.2969" y2="992.0859"/><line style="stroke:#181818;stroke-width:0.5;stroke-dasharray:5.0,5.0;" x1="503.6484" x2="503.6484" y1="81.2969" y2="992.0859"/><line style="stroke:#181818;stroke-width:0.5;stroke-dasharray:5.0,5.0;" x1="730.5532" x2="730.5532" y1="81.2969" y2="992.0859"/><line style="stroke:#181818;stroke-width:0.5;stroke-dasharray:5.0,5.0;" x1="974.0747" x2="974.0747" y1="81.2969" y2="992.0859"/><text fill="#000000" font-family="sans-serif" font-size="14" lengthAdjust="spacing" textLength="31.9102" x="20" y="77.9951">User</text><ellipse cx="38.9551" cy="13.5" fill="#E2E2F0" rx="8" ry="8" style="stroke:#181818;stroke-width:0.5;"/><path d="M38.9551,21.5 L38.9551,48.5 M25.9551,29.5 L51.9551,29.5 M38.9551,48.5 L25.9551,63.5 M38.9551,48.5 L51.9551,63.5 " fill="none" style="stroke:#181818;stroke-width:0.5;"/><text fill="#000000" font-family="sans-serif" font-size="14" lengthAdjust="spacing" textLength="31.9102" x="20" y="1004.0811">User</text><ellipse cx="38.9551" cy="1015.8828" fill="#E2E2F0" rx="8" ry="8" style="stroke:#181818;stroke-width:0.5;"/><path d="M38.9551,1023.8828 L38.9551,1050.8828 M25.9551,1031.8828 L51.9551,1031.8828 M38.9551,1050.8828 L25.9551,1065.8828 M38.9551,1050.8828 L51.9551,1065.8828 " fill="none" style="stroke:#181818;stroke-width:0.5;"/><rect fill="#E2E2F0" height="30.2969" rx="2.5" ry="2.5" style="stroke:#181818;stroke-width:0.5;" width="77.3418" x="226.3872" y="50"/><text fill="#000000" font-family="sans-serif" font-size="14" lengthAdjust="spacing" textLength="63.3418" x="233.3872" y="69.9951">FrontEnd</text><rect fill="#E2E2F0" height="30.2969" rx="2.5" ry="2.5" style="stroke:#181818;stroke-width:0.5;" width="77.3418" x="226.3872" y="991.0859"/><text fill="#000000" font-family="sans-serif" font-size="14" lengthAdjust="spacing" textLength="63.3418" x="233.3872" y="1011.0811">FrontEnd</text><rect fill="#E2E2F0" height="30.2969" rx="2.5" ry="2.5" style="stroke:#181818;stroke-width:0.5;" width="74.5938" x="466.6484" y="50"/><text fill="#000000" font-family="sans-serif" font-size="14" lengthAdjust="spacing" textLength="60.5938" x="473.6484" y="69.9951">BackEnd</text><rect fill="#E2E2F0" height="30.2969" rx="2.5" ry="2.5" style="stroke:#181818;stroke-width:0.5;" width="74.5938" x="466.6484" y="991.0859"/><text fill="#000000" font-family="sans-serif" font-size="14" lengthAdjust="spacing" textLength="60.5938" x="473.6484" y="1011.0811">BackEnd</text><rect fill="#E2E2F0" height="30.2969" rx="2.5" ry="2.5" style="stroke:#181818;stroke-width:0.5;" width="70.7041" x="695.5532" y="50"/><text fill="#000000" font-family="sans-serif" font-size="14" lengthAdjust="spacing" textLength="56.7041" x="702.5532" y="69.9951">NotiHub</text><rect fill="#E2E2F0" height="30.2969" rx="2.5" ry="2.5" style="stroke:#181818;stroke-width:0.5;" width="70.7041" x="695.5532" y="991.0859"/><text fill="#000000" font-family="sans-serif" font-size="14" lengthAdjust="spacing" textLength="56.7041" x="702.5532" y="1011.0811">NotiHub</text><rect fill="#E2E2F0" height="30.2969" rx="2.5" ry="2.5" style="stroke:#181818;stroke-width:0.5;" width="99.668" x="925.0747" y="50"/><text fill="#000000" font-family="sans-serif" font-size="14" lengthAdjust="spacing" textLength="85.668" x="932.0747" y="69.9951">NVCS (CRM)</text><rect fill="#E2E2F0" height="30.2969" rx="2.5" ry="2.5" style="stroke:#181818;stroke-width:0.5;" width="99.668" x="925.0747" y="991.0859"/><text fill="#000000" font-family="sans-serif" font-size="14" lengthAdjust="spacing" textLength="85.668" x="932.0747" y="1011.0811">NVCS (CRM)</text><polygon fill="#181818" points="253.0581,108.4297,263.0581,112.4297,253.0581,116.4297,257.0581,112.4297" style="stroke:#181818;stroke-width:1.0;"/><line style="stroke:#181818;stroke-width:1.0;" x1="38.9551" x2="259.0581" y1="112.4297" y2="112.4297"/><text fill="#000000" font-family="sans-serif" font-size="13" lengthAdjust="spacing" textLength="96.3193" x="45.9551" y="107.3638">1. M&#7903; box chat</text><polygon fill="#181818" points="491.9453,137.5625,501.9453,141.5625,491.9453,145.5625,495.9453,141.5625" style="stroke:#181818;stroke-width:1.0;"/><line style="stroke:#181818;stroke-width:1.0;" x1="265.0581" x2="497.9453" y1="141.5625" y2="141.5625"/><text fill="#000000" font-family="sans-serif" font-size="13" lengthAdjust="spacing" textLength="214.8872" x="272.0581" y="136.4966">2. Call API &#273;&#7883;nh danh kh&#225;ch h&#224;ng</text><polygon fill="#181818" points="718.9053,166.6953,728.9053,170.6953,718.9053,174.6953,722.9053,170.6953" style="stroke:#181818;stroke-width:1.0;"/><line style="stroke:#181818;stroke-width:1.0;" x1="503.9453" x2="724.9053" y1="170.6953" y2="170.6953"/><text fill="#000000" font-family="sans-serif" font-size="13" lengthAdjust="spacing" textLength="182.0698" x="510.9453" y="165.6294">3. L&#432;u session, th&#244;ng tin KH</text><polygon fill="#181818" points="514.9453,195.8281,504.9453,199.8281,514.9453,203.8281,510.9453,199.8281" style="stroke:#181818;stroke-width:1.0;"/><line style="stroke:#181818;stroke-width:1.0;stroke-dasharray:2.0,2.0;" x1="508.9453" x2="729.9053" y1="199.8281" y2="199.8281"/><text fill="#000000" font-family="sans-serif" font-size="13" lengthAdjust="spacing" textLength="139.4961" x="520.9453" y="194.7622">Response l&#432;u session</text><polygon fill="#181818" points="276.0581,224.9609,266.0581,228.9609,276.0581,232.9609,272.0581,228.9609" style="stroke:#181818;stroke-width:1.0;"/><line style="stroke:#181818;stroke-width:1.0;stroke-dasharray:2.0,2.0;" x1="270.0581" x2="502.9453" y1="228.9609" y2="228.9609"/><text fill="#000000" font-family="sans-serif" font-size="13" lengthAdjust="spacing" textLength="192.4736" x="282.0581" y="223.895">4. Tr&#7843; v&#7873; tin nh&#7855;n ch&#224;o m&#7915;ng</text><polygon fill="#181818" points="49.9551,254.0938,39.9551,258.0938,49.9551,262.0938,45.9551,258.0938" style="stroke:#181818;stroke-width:1.0;"/><line style="stroke:#181818;stroke-width:1.0;" x1="43.9551" x2="264.0581" y1="258.0938" y2="258.0938"/><text fill="#000000" font-family="sans-serif" font-size="13" lengthAdjust="spacing" textLength="202.103" x="55.9551" y="253.0278">4. Hi&#7875;n th&#7883; tin nh&#7855;n ch&#224;o m&#7915;ng</text><path d="M10,273.0938 L74.4429,273.0938 L74.4429,280.2266 L64.4429,290.2266 L10,290.2266 L10,273.0938 " fill="#EEEEEE" style="stroke:#000000;stroke-width:1.5;"/><rect fill="none" height="614.5938" style="stroke:#000000;stroke-width:1.5;" width="1024.7427" x="10" y="273.0938"/><text fill="#000000" font-family="sans-serif" font-size="13" font-weight="bold" lengthAdjust="spacing" textLength="19.4429" x="25" y="286.1606">alt</text><text fill="#000000" font-family="sans-serif" font-size="11" font-weight="bold" lengthAdjust="spacing" textLength="90.0034" x="89.4429" y="285.3042">[G&#7907;i &#253; c&#226;u h&#7887;i]</text><polygon fill="#181818" points="253.0581,307.3594,263.0581,311.3594,253.0581,315.3594,257.0581,311.3594" style="stroke:#181818;stroke-width:1.0;"/><line style="stroke:#181818;stroke-width:1.0;" x1="38.9551" x2="259.0581" y1="311.3594" y2="311.3594"/><text fill="#000000" font-family="sans-serif" font-size="13" lengthAdjust="spacing" textLength="137.2427" x="45.9551" y="306.2935">5. Ch&#7885;n c&#226;u h&#7887;i g&#7907;i &#253;</text><polygon fill="#181818" points="491.9453,336.4922,501.9453,340.4922,491.9453,344.4922,495.9453,340.4922" style="stroke:#181818;stroke-width:1.0;"/><line style="stroke:#181818;stroke-width:1.0;" x1="265.0581" x2="497.9453" y1="340.4922" y2="340.4922"/><text fill="#000000" font-family="sans-serif" font-size="13" lengthAdjust="spacing" textLength="171.374" x="272.0581" y="335.4263">6. Call API Check QA (Key)</text><polygon fill="#181818" points="276.0581,365.625,266.0581,369.625,276.0581,373.625,272.0581,369.625" style="stroke:#181818;stroke-width:1.0;"/><line style="stroke:#181818;stroke-width:1.0;stroke-dasharray:2.0,2.0;" x1="270.0581" x2="502.9453" y1="369.625" y2="369.625"/><text fill="#000000" font-family="sans-serif" font-size="13" lengthAdjust="spacing" textLength="148.8906" x="282.0581" y="364.5591">7. Response c&#226;u tr&#7843; l&#7901;i</text><polygon fill="#181818" points="49.9551,394.7578,39.9551,398.7578,49.9551,402.7578,45.9551,398.7578" style="stroke:#181818;stroke-width:1.0;"/><line style="stroke:#181818;stroke-width:1.0;" x1="43.9551" x2="264.0581" y1="398.7578" y2="398.7578"/><text fill="#000000" font-family="sans-serif" font-size="13" lengthAdjust="spacing" textLength="120.5864" x="55.9551" y="393.6919">8. Hi&#7875;n th&#7883; k&#7871;t qu&#7843;</text><line style="stroke:#000000;stroke-width:1.0;stroke-dasharray:2.0,2.0;" x1="10" x2="1034.7427" y1="407.7578" y2="407.7578"/><text fill="#000000" font-family="sans-serif" font-size="11" font-weight="bold" lengthAdjust="spacing" textLength="81.7051" x="15" y="417.9683">[T&#432; v&#7845;n vi&#234;n]</text><polygon fill="#181818" points="253.0581,438.6953,263.0581,442.6953,253.0581,446.6953,257.0581,442.6953" style="stroke:#181818;stroke-width:1.0;"/><line style="stroke:#181818;stroke-width:1.0;" x1="38.9551" x2="259.0581" y1="442.6953" y2="442.6953"/><text fill="#000000" font-family="sans-serif" font-size="13" lengthAdjust="spacing" textLength="155.8223" x="45.9551" y="437.6294">9. Ch&#7885;n g&#7863;p t&#432; v&#7845;n vi&#234;n</text><polygon fill="#181818" points="491.9453,467.8281,501.9453,471.8281,491.9453,475.8281,495.9453,471.8281" style="stroke:#181818;stroke-width:1.0;"/><line style="stroke:#181818;stroke-width:1.0;" x1="265.0581" x2="497.9453" y1="471.8281" y2="471.8281"/><text fill="#000000" font-family="sans-serif" font-size="13" lengthAdjust="spacing" textLength="113.8516" x="272.0581" y="466.7622">10. Call API NVCS</text><polygon fill="#181818" points="718.9053,496.9609,728.9053,500.9609,718.9053,504.9609,722.9053,500.9609" style="stroke:#181818;stroke-width:1.0;"/><line style="stroke:#181818;stroke-width:1.0;" x1="503.9453" x2="724.9053" y1="500.9609" y2="500.9609"/><text fill="#000000" font-family="sans-serif" font-size="13" lengthAdjust="spacing" textLength="113.8516" x="510.9453" y="495.895">11. Call API NVCS</text><polygon fill="#181818" points="962.9087,526.0938,972.9087,530.0938,962.9087,534.0938,966.9087,530.0938" style="stroke:#181818;stroke-width:1.0;"/><line style="stroke:#181818;stroke-width:1.0;" x1="730.9053" x2="968.9087" y1="530.0938" y2="530.0938"/><text fill="#000000" font-family="sans-serif" font-size="13" lengthAdjust="spacing" textLength="126.9976" x="737.9053" y="525.0278">12. &#272;i&#7873;u ph&#7889;i NVCS</text><polygon fill="#181818" points="741.9053,555.2266,731.9053,559.2266,741.9053,563.2266,737.9053,559.2266" style="stroke:#181818;stroke-width:1.0;"/><line style="stroke:#181818;stroke-width:1.0;" x1="735.9053" x2="973.9087" y1="559.2266" y2="559.2266"/><text fill="#000000" font-family="sans-serif" font-size="13" lengthAdjust="spacing" textLength="220.0034" x="747.9053" y="554.1606">13. Ph&#226;n h&#7891;i tin nh&#7855;n Kh&#225;ch h&#224;ng</text><polygon fill="#181818" points="514.9453,584.3594,504.9453,588.3594,514.9453,592.3594,510.9453,588.3594" style="stroke:#181818;stroke-width:1.0;"/><line style="stroke:#181818;stroke-width:1.0;stroke-dasharray:2.0,2.0;" x1="508.9453" x2="729.9053" y1="588.3594" y2="588.3594"/><text fill="#000000" font-family="sans-serif" font-size="13" lengthAdjust="spacing" textLength="120.9165" x="520.9453" y="583.2935">Response tin nh&#7855;n</text><polygon fill="#181818" points="276.0581,613.4922,266.0581,617.4922,276.0581,621.4922,272.0581,617.4922" style="stroke:#181818;stroke-width:1.0;"/><line style="stroke:#181818;stroke-width:1.0;stroke-dasharray:2.0,2.0;" x1="270.0581" x2="502.9453" y1="617.4922" y2="617.4922"/><text fill="#000000" font-family="sans-serif" font-size="13" lengthAdjust="spacing" textLength="155.2256" x="282.0581" y="612.4263">14. G&#7917;i th&#244;ng tin t&#432; v&#7845;n</text><polygon fill="#181818" points="49.9551,642.625,39.9551,646.625,49.9551,650.625,45.9551,646.625" style="stroke:#181818;stroke-width:1.0;"/><line style="stroke:#181818;stroke-width:1.0;" x1="43.9551" x2="264.0581" y1="646.625" y2="646.625"/><text fill="#000000" font-family="sans-serif" font-size="13" lengthAdjust="spacing" textLength="184.0059" x="55.9551" y="641.5591">15. Hi&#7875;n th&#7883; th&#244;ng tin t&#432; v&#7845;n</text><polygon fill="#181818" points="253.0581,671.7578,263.0581,675.7578,253.0581,679.7578,257.0581,675.7578" style="stroke:#181818;stroke-width:1.0;"/><line style="stroke:#181818;stroke-width:1.0;" x1="38.9551" x2="259.0581" y1="675.7578" y2="675.7578"/><text fill="#000000" font-family="sans-serif" font-size="13" lengthAdjust="spacing" textLength="171.2661" x="45.9551" y="670.6919">16. G&#7917;i c&#226;u h&#7887;i (Free text)</text><polygon fill="#181818" points="491.9453,700.8906,501.9453,704.8906,491.9453,708.8906,495.9453,704.8906" style="stroke:#181818;stroke-width:1.0;"/><line style="stroke:#181818;stroke-width:1.0;" x1="265.0581" x2="497.9453" y1="704.8906" y2="704.8906"/><text fill="#000000" font-family="sans-serif" font-size="13" lengthAdjust="spacing" textLength="163.9282" x="272.0581" y="699.8247">17. G&#7917;i c&#226;u h&#7887;i xu&#7889;ng BE</text><polygon fill="#181818" points="718.9053,730.0234,728.9053,734.0234,718.9053,738.0234,722.9053,734.0234" style="stroke:#181818;stroke-width:1.0;"/><line style="stroke:#181818;stroke-width:1.0;" x1="503.9453" x2="724.9053" y1="734.0234" y2="734.0234"/><text fill="#000000" font-family="sans-serif" font-size="13" lengthAdjust="spacing" textLength="202.96" x="510.9453" y="728.9575">18. G&#7917;i c&#226;u h&#7887;i qua k&#234;nh NVCS</text><polygon fill="#181818" points="962.9087,759.1563,972.9087,763.1563,962.9087,767.1563,966.9087,763.1563" style="stroke:#181818;stroke-width:1.0;"/><line style="stroke:#181818;stroke-width:1.0;" x1="730.9053" x2="968.9087" y1="763.1563" y2="763.1563"/><text fill="#000000" font-family="sans-serif" font-size="13" lengthAdjust="spacing" textLength="220.0034" x="737.9053" y="758.0903">19. Ph&#226;n h&#7891;i tin nh&#7855;n Kh&#225;ch h&#224;ng</text><polygon fill="#181818" points="741.9053,788.2891,731.9053,792.2891,741.9053,796.2891,737.9053,792.2891" style="stroke:#181818;stroke-width:1.0;"/><line style="stroke:#181818;stroke-width:1.0;" x1="735.9053" x2="973.9087" y1="792.2891" y2="792.2891"/><text fill="#000000" font-family="sans-serif" font-size="13" lengthAdjust="spacing" textLength="120.9165" x="747.9053" y="787.2231">Response tin nh&#7855;n</text><polygon fill="#181818" points="514.9453,817.4219,504.9453,821.4219,514.9453,825.4219,510.9453,821.4219" style="stroke:#181818;stroke-width:1.0;"/><line style="stroke:#181818;stroke-width:1.0;stroke-dasharray:2.0,2.0;" x1="508.9453" x2="729.9053" y1="821.4219" y2="821.4219"/><text fill="#000000" font-family="sans-serif" font-size="13" lengthAdjust="spacing" textLength="120.9165" x="520.9453" y="816.356">Response tin nh&#7855;n</text><polygon fill="#181818" points="276.0581,846.5547,266.0581,850.5547,276.0581,854.5547,272.0581,850.5547" style="stroke:#181818;stroke-width:1.0;"/><line style="stroke:#181818;stroke-width:1.0;stroke-dasharray:2.0,2.0;" x1="270.0581" x2="502.9453" y1="850.5547" y2="850.5547"/><text fill="#000000" font-family="sans-serif" font-size="13" lengthAdjust="spacing" textLength="155.2256" x="282.0581" y="845.4888">20. G&#7917;i th&#244;ng tin t&#432; v&#7845;n</text><polygon fill="#181818" points="49.9551,875.6875,39.9551,879.6875,49.9551,883.6875,45.9551,879.6875" style="stroke:#181818;stroke-width:1.0;"/><line style="stroke:#181818;stroke-width:1.0;" x1="43.9551" x2="264.0581" y1="879.6875" y2="879.6875"/><text fill="#000000" font-family="sans-serif" font-size="13" lengthAdjust="spacing" textLength="184.0059" x="55.9551" y="874.6216">21. Hi&#7875;n th&#7883; th&#244;ng tin t&#432; v&#7845;n</text><polygon fill="#181818" points="253.0581,911.8203,263.0581,915.8203,253.0581,919.8203,257.0581,915.8203" style="stroke:#181818;stroke-width:1.0;"/><line style="stroke:#181818;stroke-width:1.0;" x1="38.9551" x2="259.0581" y1="915.8203" y2="915.8203"/><text fill="#000000" font-family="sans-serif" font-size="13" lengthAdjust="spacing" textLength="119.939" x="45.9551" y="910.7544">22. &#272;&#243;ng box chat</text><polygon fill="#181818" points="491.9453,940.9531,501.9453,944.9531,491.9453,948.9531,495.9453,944.9531" style="stroke:#181818;stroke-width:1.0;"/><line style="stroke:#181818;stroke-width:1.0;" x1="265.0581" x2="497.9453" y1="944.9531" y2="944.9531"/><text fill="#000000" font-family="sans-serif" font-size="13" lengthAdjust="spacing" textLength="137.1221" x="272.0581" y="939.8872">23. Call API End Chat</text><polygon fill="#181818" points="718.9053,970.0859,728.9053,974.0859,718.9053,978.0859,722.9053,974.0859" style="stroke:#181818;stroke-width:1.0;"/><line style="stroke:#181818;stroke-width:1.0;" x1="503.9453" x2="724.9053" y1="974.0859" y2="974.0859"/><text fill="#000000" font-family="sans-serif" font-size="13" lengthAdjust="spacing" textLength="139.915" x="510.9453" y="969.02">24. L&#432;u l&#7883;ch s&#7917; t&#432; v&#7845;n</text><!--SRC=[hLJDQzH05B_dhtZqj0isDEdt7WfjQ5rPAxLMxzCqx0o9asqoAUknU2oYnRDOMxmeOa51I10FAVq_vZ_n9QQxa-ra_S0zBClC-xttVXyxn1LX18zZBpAC0Oa4Szc0S05RKSZ59Z-e7MuGrvyyUn0AratswsTFd4T0OfWfVxIStUtsZ64KGs1sRTIw0vO9sp9x2_lX45nAX75pLPHLmpfWc-2G883rdNjmTIgp4qxXWE2NJ_DtBWMQd_6-KPKNo6gb3ioRSF_wCe7OYsCMyZiWQFwLzq4m3hskKTN1h3fjrui78Oyz21Jak7jj_mKJzYAPNi2Hp8xBhfpAz3D7ClbP24zbzX4tKqaL6fIuBfFPSuuB8Pz6f4420NTbTi4W_mvkVfu0rhza1k3djfoBA1JUl-1AAVGhU8dHwhkawEjGp_NXuJgqUjwpTedHKrysnqgLqqGfH22pD-pMg5-iLoPO-pBz8U0mGPpX1TXdx_eIbKpVSpXY-GVUm79rnB8lqsy341gKbgSrfn0jabcdf-J6idILexYibMTOXicyUeMKZXCOu4gdJ2akab_hYM7SeVavBtnvpLJFUsgEQvEqmHmZf_XZOSOmEP-OclcHL0qEMOkJmTHX6tonbcucAkbhRKKURkmDHNkACSiQv311GN7sncQpJIiQt652mCSSq6d6hVw55vD6Dldm7qopv_x1DDlw4zCyVBOrBx1THZZ_WlM_UOJdbRz4SUaKfJfNx8NgrSMtu0IbZ97GU96V]--></g></svg>